<svg xmlns="http://www.w3.org/2000/svg" xmlns:xlink="http://www.w3.org/1999/xlink" xml:space="preserve" version="1.1" style="shape-rendering:geometricPrecision;text-rendering:geometricPrecision;image-rendering:optimizeQuality;" viewBox="0 0 50800 63500" x="0px" y="0px" fill-rule="evenodd" clip-rule="evenodd"><defs><style type="text/css">

    .fil0 {fill:white}

  </style></defs><g><path class="fil0" d="M30291 45940c22,-12 -75,-159 168,-54 225,97 14,-79 110,137 -97,44 131,163 -165,41 -231,-97 15,4 -113,-124zm-1062 -698l82 342c60,381 46,249 -130,312 -60,-190 -74,-463 48,-654zm-1340 -1307c-115,79 -101,52 -164,206 135,6 341,-102 384,435 -410,-143 -262,74 -293,102 455,-25 197,-17 311,109 -8,111 -57,109 -6,221l234 270 -87 -575c96,27 256,94 314,107 176,38 -229,18 118,20 291,2 64,-4 166,-46 2,-91 192,-71 -143,-145l271 -54c-114,380 -33,56 169,283l77 134c564,22 524,122 925,287 -86,58 -16,46 -162,93 -302,98 -275,-30 -591,-37 205,-130 185,-52 372,-118 -413,-240 -312,131 -813,-257 -44,-35 -3,-40 -162,-97 -46,373 79,722 47,1276 395,-15 -9,-124 520,-212 16,312 -59,392 275,443l16 -854 800 -61 169 302 -458 -8c-94,257 -53,389 35,601l92 -62c9,-7 29,-28 41,-36 178,-125 -84,-126 208,-70 17,66 175,-131 -6,208 -243,454 -1432,496 -1740,527 -1436,139 -664,191 -2397,116 -821,-36 -1670,28 -2520,-36 -394,-29 -845,-122 -1112,-298 -359,-238 -221,-638 -166,-975 262,-75 561,-215 799,-321 376,-167 1356,-135 1994,-825 203,-220 118,-113 377,-224 19,-361 73,-793 244,-1090l1703 12c-21,223 11,136 15,263 12,356 70,90 -80,233l224 153zm368 -1888c66,96 92,-135 94,229 0,25 -12,111 -19,136 -39,147 -52,107 -100,178 -161,-114 -137,58 -113,-216l138 -327zm786 -27c190,212 -35,338 -36,339 -125,-31 -156,196 -182,-159 -13,-177 76,-141 218,-180zm228 115c40,-117 2,-92 166,-130l-166 130zm-218 -626c214,464 6,413 -91,459 -94,-44 -177,142 -171,-234 6,-317 29,-197 262,-225zm-422 43c79,191 111,779 26,939 -159,-35 -108,215 -193,-159 -44,-191 30,-211 40,-283 29,-220 -131,-406 127,-497zm-422 21c181,54 103,-190 158,141 44,266 -87,260 -107,284 -9,-16 -20,-59 -23,-50l-28 -375zm1055 322c15,-304 -148,-552 864,-545l-164 238c-124,128 -67,58 -198,145 -202,134 -176,174 -502,162zm293 -658c-102,-256 -41,-667 -53,-974 170,61 281,-55 297,463 15,493 50,410 -244,511zm767 65l-458 34c132,-217 202,-157 332,-368 -204,79 -116,82 -366,140l131 -789 1130 -364c-105,448 -775,1156 -769,1347zm-434 -1192c-69,-95 -142,103 -44,-323 1,-6 51,-170 53,-174 74,-182 31,-79 92,-168 33,59 56,7 65,174 8,143 -49,372 -166,491zm590 -95l-21 -563c-105,260 -52,124 -61,330 -18,406 89,183 -156,291 -144,-183 -133,-157 -65,-586 57,-39 41,-48 143,-89 246,-100 371,-42 662,-175 13,15 33,20 37,49l160 233 62 -399c234,-92 146,-111 420,-195 -323,731 -478,1084 -1181,1104zm309 -1074c9,-249 -32,-226 85,-397 108,31 151,-124 204,225 38,250 -23,246 -90,335 -202,-95 -44,38 -199,-163zm415 48c-40,-110 -63,-132 -69,-239 -21,-340 127,-368 400,-425 26,244 39,229 58,487 -227,65 -149,87 -389,177zm-383 -807c146,70 101,-100 122,97 18,182 8,44 -64,148 -56,-46 -251,-54 -58,-245zm848 -1778c186,358 52,468 -6,559 -311,-139 -295,-390 6,-559zm429 -187l-269 13c58,-321 87,-256 477,-316 -123,237 -77,133 -208,303zm0 0c379,-79 -20,71 387,250 -21,-328 -170,-678 169,-699l-522 2247c-64,186 -219,328 -326,591 -163,-221 -153,-415 -185,-732l331 -208c-209,41 -75,38 -358,97l-76 -665c147,-87 556,-242 746,-446 -249,14 -122,61 -408,130l-29 -370 271 -195zm-275 -275c-21,-393 77,-502 437,-450l-11 305 -426 145zm728 -294c-137,-36 -146,129 -268,-440l481 -256c-1,322 -17,562 -213,696zm-650 -2821c320,-110 97,-140 446,-169l107 557c-203,182 -183,199 -494,203l-59 -591zm293 -770l43 447c-154,161 -106,130 -319,213 -115,-165 -175,-158 -77,-472 141,-112 175,-119 353,-188zm-121 -1180c-25,-290 22,-160 100,-234 249,79 250,305 32,430 -99,-75 -119,-38 -132,-196zm135 -712c84,366 37,250 -101,331 -97,-26 -353,-303 -127,-598 148,38 143,-105 228,267zm-3 1076c286,-183 532,-261 643,-654 -263,78 -119,122 -354,288 -239,-444 145,-205 155,-648l-272 165 -150 -603c167,-206 225,-284 478,-422l78 208c96,399 186,898 157,1216 -75,815 400,3464 -186,4003l-660 529c-45,179 69,-131 -14,119 -376,-160 169,65 -116,-96 -100,-57 20,7 -96,-30 -6,-2 -39,3 -43,-13 -5,-18 -32,-9 -56,-16l-30 -423c85,-65 125,-82 207,-157l556 -492 330 215c-339,-1689 -198,-795 13,-1463l-219 154c-118,-216 -188,-559 -68,-799 -180,-219 -167,-109 -191,-478 210,-106 232,-64 371,-309l-355 222c-44,-59 -38,-25 -90,-142l-88 -374zm-681 -4115c652,-158 285,-271 742,-354 224,563 212,1597 457,2094l-126 183c-119,226 -24,315 -388,431 -41,-53 -38,-29 -83,-120l-117 -441c212,-231 352,-210 442,-533 -373,22 -190,183 -537,300l-81 -422c139,-96 368,-276 420,-429 -299,-49 -243,70 -465,221 -272,-567 332,-226 421,-970 -367,163 -154,333 -600,484l-85 -444zm267 -522c-63,333 -57,337 -382,419 -18,-57 -62,-214 -71,-238 155,-136 186,-162 453,-181zm0 0l358 -261c69,236 -34,281 -145,420 -135,-75 -127,-64 -213,-159zm-426 -108c95,-145 -38,-134 262,-114l-262 114zm399 -215c86,-193 175,-223 313,-285 -34,224 -113,264 -313,285zm25 -1008c7,-2 26,-7 31,-10 20,-10 65,-95 61,-107l143 680c-132,124 -151,148 -312,178l-110 -460c-190,-228 6,-239 7,-241l180 -40zm-215 -910c6,-26 26,-26 43,-39l82 726c-240,44 -46,-188 -241,109l-129 -477 206 -278c8,-11 32,-15 39,-41zm-167 -190c-110,-179 -65,-312 25,-461 135,192 129,254 -25,461zm-2647 -7012c681,81 94,-59 664,-90 435,-24 1712,-161 2000,-55 149,371 -10,935 -76,1311 -70,397 -51,849 -255,1109 -136,136 -994,207 -1223,221 -479,31 -821,-130 -1189,-273 -90,-1300 73,-1482 79,-2223zm2973 44c145,330 -44,660 -70,904 -52,487 254,533 -171,772l241 -1676zm-368 9291l-543 389 435 -10c89,453 -303,456 -566,635 101,78 -159,116 163,55 159,-31 145,-184 533,-222 84,358 161,297 -101,522l347 336c-181,360 -662,448 -880,729 61,33 42,96 263,-7 378,-178 537,-385 719,-408l26 322c-382,317 -735,346 -1099,580 132,80 -185,88 191,53l995 -454c290,701 130,567 57,638 -333,-111 36,-161 -356,-439 169,747 202,622 -74,801l255 578 -404 186c110,87 -31,62 222,46 258,-16 366,-137 374,402 -205,189 -238,152 -430,269 -133,81 -260,187 -354,251 440,-62 484,-241 850,-317 65,130 112,218 139,437l-205 214c-211,-62 -160,38 -288,-193 -93,423 1,281 -399,579l419 -75 43 454c-165,78 -370,199 -592,282 -226,84 -498,71 -607,248 259,-76 1105,-372 1244,-377l127 547c-269,66 -382,95 -566,255l570 -126 143 337c188,-328 -251,-443 502,-586 64,1064 177,685 -689,1174l-60 -100c-53,-112 -59,-235 -167,-269l1 606 15 581c-35,31 -56,78 -147,133 277,230 208,351 228,797 -356,70 -296,166 -619,149l93 74c222,180 208,739 246,1011 70,512 -123,-7 104,666l-491 82c132,-228 50,-141 285,-260 -46,-26 -15,-27 -113,-42 -1,0 -143,11 -147,11 -36,-261 -32,-397 -152,-590 -116,191 -3,395 8,680 -251,-114 -41,12 -221,-194 -131,439 100,204 -218,316 264,75 193,-217 203,228l6 133 106 328 -73 240c-296,112 -462,174 -876,152l-148 823c-320,-108 6,-17 -274,-139l-165 223 -862 -16c738,190 649,-34 952,98 68,275 19,621 -33,951l-139 -783c-94,208 -27,540 -69,808 -587,15 -286,76 -559,110l-97 -510c-154,171 -67,162 -80,466l-274 -7c-79,485 -107,823 -136,1311 -461,-58 -777,-55 -1207,-180 138,302 368,142 789,309 -219,130 -585,113 -864,90 -336,-28 -457,-122 -748,-176 -758,-139 -708,-240 -1213,-637l-988 -840c-807,-630 -677,-866 -758,-1022 -59,-115 -217,-133 -426,-445 -588,-877 -392,-463 -835,-1519 -162,-388 -322,-640 -509,-1074 -482,-1119 -338,-1137 -528,-1871 -41,-159 -140,-365 -189,-556 -93,-367 -19,-450 -109,-708 -267,-770 -106,-1413 -190,-1969 -274,-1817 1601,-8049 1248,-10101 -98,-563 -151,-758 -143,-1401 3,-284 -1,-419 -66,-691 -78,-330 -42,-244 -308,-432 215,-160 63,272 170,-65 4,-14 24,-6 35,-12 -188,-932 -408,-2231 -482,-3139 557,427 4682,718 5801,667 676,-31 1375,57 2080,42l-301 2732c440,211 1345,295 1873,202 326,-57 691,90 978,-17 326,-121 302,-197 495,-467l20 165c-1,14 -9,35 -11,50l-14 885c-32,591 6,875 -218,1021l-63 -514c-245,320 -215,312 -491,548 330,-107 -26,-147 381,-165 -20,369 -270,416 -567,537l-617 208c-152,102 -5,-16 -125,137 629,-67 845,-301 1317,-405 25,481 -203,386 -431,676 261,-32 359,-167 507,-211l43 328c-359,416 -602,431 -745,642 308,-123 448,-309 782,-439 35,91 86,331 101,458 41,328 53,232 -124,389 -46,-47 -115,34 -133,-224 -12,-179 -9,-45 69,-198 -250,39 -177,35 -300,201 205,88 136,-20 169,354 -54,206 -572,442 -789,669 515,-55 452,-212 807,-383 318,452 -240,526 -437,889l480 -178 88 539c-226,149 -601,272 -691,527l780 -370c58,257 70,271 -192,384l-375 189c-6,-14 -26,24 -40,36 421,119 383,-202 769,-175 39,437 56,162 -265,419 -129,104 -9,-19 -114,142l233 -23zm-14884 -10312c423,49 586,188 996,184 365,-4 458,-144 816,-116 -226,102 -33,23 -201,151 -444,336 -797,408 -1141,664 -168,124 -196,162 -481,183 329,-731 104,-330 11,-1066zm4749 -67c715,-205 1623,-223 2506,-229 91,158 104,186 128,390 0,2 10,169 10,169 -24,304 -1953,-90 -2339,-175 -506,-110 -134,4 -305,-155zm8706 507c422,-445 830,-165 1456,-31l-1456 31zm-5916 -2011c1966,178 2792,-12 4132,58l-222 853c-555,17 -1373,-1 -1934,-30 -594,-31 -1199,124 -1726,65l-250 -946zm-7873 -991c251,39 407,445 448,375 7,-13 26,29 39,45l-486 356 -1 -776zm5954 255c215,-259 649,-504 1016,-604 10,237 58,398 134,614 116,331 43,241 326,392 -311,4 -1262,-280 -1476,-402zm7172 768c622,-44 2184,-285 2803,-459 274,-77 554,-179 849,-221l-726 2137c-410,-43 -338,-183 -691,-301 -216,-71 -512,-133 -728,-205 -381,-126 -475,-100 -860,-91 -396,10 -563,-126 -703,177 271,279 854,40 1361,160 419,99 779,282 1110,421 -211,-4 -528,5 -707,-57 -294,-102 -108,-148 -524,-182 -1099,433 -1339,753 -2696,697 -1095,-45 -2237,29 -3294,-123l-98 -781c559,20 2966,-164 3499,24 -51,231 -135,481 -80,725 317,-277 322,-1412 559,-1905l679 -15c75,801 -561,1369 -271,1803 68,-57 120,118 186,-423 26,-209 32,-240 104,-454 93,-276 150,-623 228,-927zm-12911 -1165c161,-1880 2077,-1605 2438,-1308l325 378c219,234 162,97 374,264 326,257 235,660 470,908 329,348 2920,758 3448,815 157,328 213,702 248,1097l-3170 212c-54,-216 -98,-403 -158,-649 -59,-240 -148,-343 -199,-570 -51,-228 -56,-379 -133,-603 -37,-104 -84,-254 -102,-294 -91,-198 14,-113 -192,-182 -159,350 103,568 282,1504 -315,184 -652,552 -1104,684 -409,119 -927,407 -1399,404 -1275,-8 -1376,-1022 -1190,-1406 169,-350 202,-183 563,-218 228,-214 242,-207 638,-176 269,20 500,28 770,41 530,26 1169,214 1236,-238 -434,-75 -1376,32 -1807,-44 -335,-59 -470,-51 -790,-197 -433,-197 -287,-233 -548,-422zm13471 -1063c362,-134 2540,409 2955,613 15,8 31,19 46,26l140 72c97,49 36,5 142,74 -17,390 -382,418 -723,530l-3014 666c24,-448 276,-1719 454,-1981zm-6056 296c624,-511 735,-355 938,-367 933,-56 3344,-242 3954,87 -55,505 -290,1602 -462,1995 -1681,-58 -2090,196 -4269,-95l-161 -1620zm-3294 823c-517,-32 -390,-157 -656,-823 -232,-581 -1549,-736 -1164,-1612 600,-1368 2665,-598 2396,464 -55,214 -90,475 -155,675 -155,470 42,339 -421,1296zm1723 -978c156,-361 427,-405 555,-843 -217,24 -202,-1 -336,108 66,-236 147,-173 232,-428 -373,-4 -627,560 -867,840l-776 986c-152,-236 -44,-354 166,-775 150,-300 222,-375 390,-626 -42,-104 -47,-83 -82,-143 -294,-499 502,-859 1397,-671 649,137 1187,280 1120,998 -119,277 -1225,955 -1470,1125 -248,173 -456,438 -708,545 -285,119 -867,127 -947,-274l116 -42c670,-209 826,-1179 1444,-1410 -13,276 -241,412 -380,681l146 -71zm-5887 271c-409,-657 1942,-2137 2378,-2175 -384,654 -160,486 -150,1153 -606,-156 -991,-49 -1403,180 -539,300 -526,287 -825,842zm6726 -2041c-1157,-324 -995,34 -1747,301 -242,-217 -151,-404 -476,-623 -335,-226 -489,-119 -748,-335 720,-132 2020,61 2722,278 1004,312 1315,740 1823,1364l-431 193c76,-637 160,-813 -1143,-1178zm7563 -2315l-705 2972c-127,477 -302,971 -408,1450l-361 1490 -692 45c-1,-544 574,-2421 739,-3046 38,-147 59,-243 117,-383 79,-188 109,-154 175,-322l628 -2202 507 -4zm-14258 -955c229,67 92,11 270,228 11,-6 117,-71 130,-77 144,-58 -30,-44 89,1 48,88 435,953 449,1025 123,619 -10,17 201,458 177,370 -100,-10 303,454 -473,125 -603,471 -1096,519 -233,-296 -375,-294 -638,-543 -208,-197 -351,-375 -545,-573l-570 -552c-511,-437 -93,-351 -353,-599l817 74 233 -241 416 127 294 -301zm13902 730c-58,-175 -15,-152 40,-433l457 158 -131 347 -366 -72zm-9490 -509c15,-1183 55,-1251 390,-2239 86,-254 83,-333 289,-457 161,278 623,2019 665,2348 -1116,-183 -810,290 -1344,348zm9614 -445l485 94 -56 340c-300,-8 -444,-83 -429,-434zm175 -593c299,78 529,159 415,462 -157,36 -224,17 -440,-110l25 -352zm330 -101c-247,-185 -289,-144 -189,-380 273,-110 509,172 616,379 -236,226 -144,213 -427,1zm-12339 1454c269,-1119 1335,-2351 2332,-2789 -40,365 -329,712 -417,1179 -85,453 -112,883 -168,1354 -282,91 -607,143 -936,104 -376,-45 -499,45 -811,152zm4076 -817c-51,-442 -170,-796 -261,-1242 -88,-426 -134,-743 -230,-1111l1388 1700c-177,135 -309,187 -476,333 -170,148 -236,213 -421,320zm1257 -1156c-215,-242 -651,-924 -997,-1257 851,-18 2463,338 2935,808 -259,166 -514,60 -897,332l-670 532 -371 -415zm7133 -203c262,-111 633,-305 909,-382 602,-167 2581,-375 3261,-458 1568,-191 3044,-345 4684,-394l-330 975c-1926,206 -5499,211 -6943,525 -522,113 -1327,664 -1581,-266zm-13208 2997c236,44 167,4 340,-68l695 -261c489,-228 737,-113 1254,-104 768,12 584,-182 1051,-451 513,-294 683,-208 1256,-155 -101,508 77,913 164,1364 -250,-3 -862,-202 -1136,-283 -523,-155 -1914,1 -2423,182 -350,125 -742,284 -1062,392 -4,-11 -9,-43 -11,-35 -2,9 -9,-28 -12,-33 -71,-139 -151,-177 -317,-233 -61,-668 -157,-520 -379,-1064 -135,-330 -197,-801 -358,-1076 -385,83 -648,222 -933,478l-494 -163 -140 393c-564,22 -1015,-214 -1465,-307 -59,595 281,1022 304,1638l-236 199c6,266 110,390 117,570 13,357 -235,270 -37,616l-136 91c-113,88 -42,34 -117,101 -104,92 -177,145 -249,214 227,322 695,263 806,739l-350 123c60,161 127,144 230,296 8,12 19,34 26,45l52 87c208,-58 362,-26 560,34 312,94 316,143 418,-121 -217,-167 -634,-43 -675,-382 0,-2 2,-185 2,-206 -189,-144 -475,-363 -584,-592l262 -183 -164 -245c120,-90 182,-161 265,-256l-204 -638 163 -135c10,-9 33,-26 42,-33 9,-7 29,-21 43,-33 16,-335 -42,-352 -139,-610 -71,-191 -123,-436 -145,-655 432,99 410,233 641,475 153,160 154,89 302,258 303,347 1114,1205 1462,1402 -401,637 -589,566 -1027,1509 -416,898 -319,1180 -430,2189 -123,1122 670,2852 908,3644l68 214 299 -81c-53,-288 18,-46 -110,-231 -9,-12 -26,-23 -35,-35l-272 -557c-265,-813 -697,-2134 -674,-2994 22,-809 292,-2396 872,-2936 98,-92 290,-155 402,-222 210,-125 186,-179 355,-275 313,-179 436,-200 749,-422 655,-464 1927,-889 2748,-952 1440,-110 3160,643 3585,1516 -559,-129 -836,-488 -1667,-565 -768,-72 -1144,-282 -1960,-205 -851,80 -981,269 -1622,515 -681,262 -1563,718 -1994,1267 -903,1150 -851,1988 -756,3433 44,674 406,891 329,1836 -46,559 -168,706 533,678 123,-194 151,-141 375,-274l837 -546c204,-118 278,-139 440,-257l814 -574c271,-140 255,-90 425,-270 119,-128 276,-179 434,-243 333,700 757,4280 863,5424 169,1815 -172,4340 -578,6045 -487,2041 -827,5975 -291,8001l711 2503c350,1022 496,1298 1038,2206 598,1000 789,980 1163,1480l786 889c149,144 425,367 619,509 218,159 526,259 563,539l409 46c162,1865 -1325,1491 -2576,2005 -283,116 -573,171 -731,447 -907,1584 701,1645 1369,1791 750,163 1500,162 2300,196 452,19 713,-33 1123,-42 775,-16 1328,106 2086,-125 389,-118 150,50 953,-197 497,-152 393,-46 823,-350 351,-248 327,-355 439,-867 -279,-444 -122,-427 -597,-753l-741 -604c-183,-63 -393,-52 -577,-135l-550 -232c-335,-154 -440,-614 -503,-1003 1479,-682 1658,-802 2687,-2043 671,-807 1259,-2277 1618,-3282 460,-1288 213,-20 561,-1882l231 -2232c16,-694 100,-1625 44,-2292 -100,-1188 -215,-3060 -509,-4152 -159,-592 -414,-1233 -519,-1809 -320,-1744 -644,-3390 -509,-5275 28,-395 115,-690 170,-1046 36,-235 -8,-305 31,-539 90,-529 159,-1114 347,-1624 221,-599 323,-1264 527,-1914 98,-312 243,-592 327,-892 346,-1230 578,-1393 -1346,-1824 -672,-151 -1421,-394 -2015,-144 65,-388 190,-647 294,-1048 93,-357 146,-666 234,-1045 79,-338 179,-672 261,-1043 133,-601 81,-506 496,-770l-257 -111c29,-254 401,-1207 491,-1382 196,-86 266,-62 408,-164 154,-112 108,-123 338,-214 915,-358 1866,-345 2861,-382 1359,-50 2885,-54 4213,-187 256,183 11,81 278,177l739 -1660c-901,1 -3504,210 -4364,349 -616,99 -1382,247 -2010,271 -1048,40 -1965,272 -2868,679 -515,232 -303,119 -548,650 -348,756 -250,1327 -504,2023 -283,775 -858,3343 -1176,3753 -430,-321 -3192,-111 -3873,-74 111,-191 147,-173 218,-423 -281,-457 -678,-881 -1034,-1302 -207,-244 -170,-250 -385,-452 -123,-114 -345,-231 -417,-372 -35,-68 -409,-1643 -386,-1903 185,-155 275,-335 573,-405 338,-79 473,42 838,44 816,-1240 2647,-1200 2649,-1200 -30,-347 -766,-747 -1115,-923 -2139,-1081 -3050,-589 -3434,-633 -198,-23 -544,-332 -604,-453 -191,-383 61,-592 -416,-648 -16,453 290,1017 -624,1513 -215,117 -490,341 -665,450 -1070,665 -1614,1385 -2081,2558 -170,426 -190,415 -191,967z"/><path class="fil0" d="M24503 31722c116,-84 223,-105 366,-219 210,-167 124,-140 401,-298 306,-175 1428,-837 1701,-877 302,-44 53,-26 482,-246 390,-200 -72,-45 349,-190 -1,183 206,978 276,1349 137,738 218,625 130,1447 -432,161 -344,328 -1321,736 -459,192 -1192,645 -1410,658l-974 -2360zm-1005 -456c336,154 744,342 571,749 346,112 435,398 542,778 82,294 287,890 311,1044 -1182,-411 -1085,-829 -1424,-2571zm374 -135c67,-282 775,-721 1132,-951 350,-225 1379,-173 1865,-168l-2198 1122c-320,141 -474,166 -799,-3zm1430 -1510c-107,-479 -82,-1515 -61,-2073 25,-645 95,-596 1449,-737 1105,-115 1075,-269 1220,832 86,657 57,1351 214,1915 -743,-7 -1652,289 -2822,63zm2975 -1577c-133,-899 -51,-1458 717,-1978 248,522 158,1161 204,1815 32,453 54,474 -187,741 -161,177 -329,348 -589,395l-11 -1037c-155,-102 112,-53 -67,38 -189,96 121,103 -67,26zm-2873 -1399c98,-198 339,-373 514,-537 302,-282 246,-268 707,-315 507,-52 1367,55 1930,128 -62,239 -107,141 -345,427l-67 87c-8,10 -30,58 -35,46 -5,-12 -22,32 -35,47 -1375,-130 -2033,157 -2669,117zm-679 34c-71,639 11,1020 31,1620 19,549 -94,1192 -93,1729l-1259 820c-25,127 -23,211 -58,306 -96,263 -55,-66 -109,236l345 1808c109,476 355,456 746,728 271,190 618,429 918,594 332,-143 608,-362 937,-471 240,-79 2076,-909 2184,-1059 80,-111 10,-52 70,-151 116,-192 190,-141 399,-354l-669 -2649c10,-11 58,-63 71,-78 433,-483 741,-841 1334,-1027 209,-843 -212,-1646 -207,-2534 1,-336 56,-357 -227,-668 -362,-58 -2586,-164 -2845,-111 -169,35 -1322,880 -1335,893 -224,222 76,60 -233,368z"/><path class="fil0" d="M25940 23605c71,-356 138,-521 250,-798 283,-697 345,-1680 1112,-1894 -160,1204 -164,2664 -1362,2692zm-3277 -380c907,-2332 825,-3920 2406,-2833 513,353 775,427 1294,685 -332,711 -248,446 -474,1328 -351,1368 69,1752 -1878,1304l-1236 -441c-17,-6 -43,-16 -56,-22 -14,-5 -38,-12 -56,-21zm3500 -3429c168,103 977,550 1063,629 -544,798 -940,-81 -2284,-580 198,-529 851,-275 1221,-49zm-3881 3739c216,87 578,136 848,232 301,106 460,243 784,290 322,46 579,21 835,98 524,158 567,39 830,260 362,-177 1460,-754 1611,-1118 54,-395 -27,-296 100,-689l512 -1946c-253,-379 -295,-470 -664,-747l-927 -498c-1401,-565 -797,45 -2102,219 -420,56 -301,-106 -722,682 -159,299 -315,659 -446,977 -317,771 -664,1497 -659,2240z"/><path class="fil0" d="M21758 34256c-10,-210 75,-40 91,7 34,101 -87,81 -91,-7zm591 5c4,10 15,29 18,39 45,123 152,-40 -17,385 -86,-53 -271,-124 -328,-204 -201,-282 18,-351 22,-356l305 136zm-637 888c340,39 583,4 719,-225 80,-134 199,-534 218,-696 -99,-141 -272,-364 -517,-361 -114,1 -181,46 -316,69 -69,12 -122,8 -182,21 -484,111 -271,871 78,1192z"/><path class="fil0" d="M22067 18233c-87,-349 258,-408 629,-448 16,255 32,399 -114,616l-175 -59c-16,-5 -37,-10 -54,-15 -202,-59 -101,12 -286,-94zm-405 -101c-18,403 61,544 417,631 -13,17 -29,22 -36,51 -7,28 -28,38 -35,49 -59,82 -36,49 -97,133 599,-125 658,-132 827,-352 311,-407 160,-414 120,-987 -488,-209 -1167,-152 -1196,475z"/><path class="fil0" d="M18331 12860c-13,6 -34,1 -40,16l-519 -35c33,35 6,34 112,106 78,53 32,27 138,75 158,71 148,27 287,117 -222,117 -640,-248 -947,-323 99,335 344,417 988,462l-215 111c208,132 140,40 236,240 -1000,-19 -788,-491 -1151,-263 103,162 212,164 461,231 -15,11 -39,5 -47,27 -15,43 -155,15 -235,228 328,8 558,-79 897,-77 846,6 825,190 924,-173 -298,-201 -560,100 -876,-282l778 51c-44,-362 -421,-430 -791,-511z"/><path class="fil0" d="M22420 20410c-76,41 124,102 -158,53 -190,-32 -110,-223 -108,-245l266 192zm-655 -241c-9,792 376,775 691,732 349,-48 185,59 340,-138 180,-234 -57,-1519 -1031,-594z"/><path class="fil0" d="M20292 12955c-71,-396 -95,-792 58,-1116 102,-215 68,-905 46,-946 -248,300 -82,989 -329,1446 -143,-176 -192,-382 -236,-624 -81,-452 60,-429 -145,-614 -141,218 -53,358 -25,653 -50,-53 -42,-35 -112,-123l-189 -304c-37,-70 -79,-172 -122,-220l-90 -47c-3,-13 -23,-1 -34,0 -54,175 79,328 205,508l417 759c125,263 243,556 556,628z"/><path class="fil0" d="M21686 31450c-181,-13 -57,-16 -136,-77 96,-295 239,-154 342,16 -76,47 -8,76 -206,61zm-385 -256c86,-200 47,-335 172,-298l450 100c-139,-235 -242,-275 -564,-258 -61,67 -109,128 -167,184 -77,73 -117,96 -174,146 -17,440 46,753 500,792 465,40 560,-270 705,-596 -221,-115 37,101 -200,-54 -67,-44 -94,-105 -186,-206 -115,26 -198,14 -336,78l-200 112z"/><path class="fil0" d="M22817 25034c-162,-248 -2,-159 80,-197 40,151 27,108 -80,197zm-322 -358c211,-192 190,-258 366,-201 76,366 -219,-35 -277,458 -46,-92 -56,-117 -89,-257zm-271 -70c-3,742 975,1051 1035,189 -127,-121 -75,-35 -176,-183l-163 -275c-441,41 -464,3 -696,269z"/><path class="fil0" d="M15797 8815c1,-54 25,-276 25,-280 -8,-206 21,-95 -71,-209 -253,258 -91,687 98,912 211,-75 62,19 203,-185l220 460c375,-112 -16,-222 413,-22 6,-417 -75,-433 -169,-731 -299,77 -53,-51 -290,218 -39,-315 -13,-368 -199,-540l-230 377z"/><path class="fil0" d="M22206 12558c-314,468 -626,238 -750,744 456,103 366,-14 766,-218 -31,-189 -27,-184 47,-320 383,-138 145,195 550,-357 201,-273 366,-212 506,-600 -452,86 -581,489 -1119,751z"/><path class="fil0" d="M18415 14854l119 52c17,4 44,10 64,15l275 67c-145,202 -134,128 -438,202l180 120c11,8 31,26 46,40 -596,222 43,102 -1068,417 149,98 56,74 263,13 1207,-359 1214,-826 1512,-984 127,-67 91,77 191,-164 -165,23 -343,101 -540,103 -245,3 -257,-19 -604,119z"/><path class="fil0" d="M16921 14756c30,176 1,164 139,274l278 187c-195,145 -282,148 -398,404 254,83 618,22 797,-186 -269,66 -360,159 -576,33 58,-69 22,-55 105,-116 52,-39 103,-69 179,-92 111,-33 147,-16 230,-35l171 -58c14,-5 35,-20 51,-31 -358,-177 -491,67 -777,-320l698 127c-195,-134 -669,-290 -897,-187z"/><path class="fil0" d="M23292 26859c211,-92 277,-178 362,-379 -428,-602 -687,-175 -629,114 32,159 118,193 267,265z"/><path class="fil0" d="M22670 28692c270,125 327,11 465,-118l4 -325c-457,-266 -714,32 -469,443z"/><path class="fil0" d="M14454 10365l419 162c240,127 254,167 492,21l-258 -152c256,-154 320,-29 535,-185 -178,-140 -348,-56 -574,4 -379,99 -444,24 -614,150z"/><path class="fil0" d="M18331 12860c-187,-175 -342,-154 -360,-414l442 47c-166,-225 -300,-244 -607,-149 16,291 251,488 525,516z"/><path class="fil0" d="M15430 10902l-641 -133c136,324 447,430 641,133z"/><path class="fil0" d="M14978 9700c-95,266 76,233 268,151 -50,-129 82,-67 -110,-168 -277,-145 -79,-22 -158,17z"/><path class="fil0" d="M17967 14945c122,91 53,145 341,16 -67,-69 80,-74 -124,-87 -154,-9 -189,57 -217,71z"/><path class="fil0" d="M30829 20835c253,26 363,-76 454,-268 -181,93 -278,161 -454,268z"/><path class="fil0" d="M17772 12841c-72,-211 -14,-155 -248,-229 82,253 60,193 248,229z"/></g></svg>
